<svg width="29" height="26" viewBox="0 0 29 26" fill="none" xmlns="http://www.w3.org/2000/svg">
<path d="M6.17428 1.02745L14.1528 0.18396L22.1313 1.02745L28.3082 9.3194L14.1528 25.8032L-0.00262451 9.3194L6.17428 1.02745Z" fill="#FDB300"/>
<path d="M5.73015 9.3194L14.1519 25.8032L-0.00349426 9.3194H5.73015Z" fill="#EA6C00"/>
<path d="M22.5722 9.3194L14.1505 25.8032L28.3059 9.3194H22.5722Z" fill="#EA6C00"/>
<path d="M5.73088 9.3194H22.5744L14.1526 25.8032L5.73088 9.3194Z" fill="#FDAD00"/>
<path d="M14.1526 0.18396L6.17411 1.02744L5.73088 9.31939L14.1526 0.18396Z" fill="#FDD231"/>
<path d="M14.1529 0.18396L22.1314 1.02744L22.5746 9.31939L14.1529 0.18396Z" fill="#FDD231"/>
<path d="M28.3059 9.31942L22.1289 1.02747L22.5722 9.31942H28.3059Z" fill="#FDAD00"/>
<path d="M-0.00349426 9.31942L6.17339 1.02747L5.73015 9.31942H-0.00349426Z" fill="#FDAD00"/>
<path d="M14.1526 0.18396L5.73088 9.31939H22.5744L14.1526 0.18396Z" fill="#FEEEB7"/>
</svg>
